<?xml version="1.0" encoding="utf-8"?>
<!-- Generator: Adobe Illustrator 24.3.0, SVG Export Plug-In . SVG Version: 6.00 Build 0)  -->
<svg version="1.1" id="Layer_1" xmlns="http://www.w3.org/2000/svg" xmlns:xlink="http://www.w3.org/1999/xlink" x="0px" y="0px"
	 viewBox="0 0 1486.2 528.4" style="enable-background:new 0 0 1486.2 528.4;" xml:space="preserve">
<style type="text/css">
	.st0{fill:#D3D3D3;}
	.st1{clip-path:url(#SVGID_2_);}
	.st2{opacity:0.2;fill:#1D1D1B;enable-background:new    ;}
	.st3{fill:#212121;}
	.st4{fill:#FFEECC;}
	.st5{opacity:0.15;fill:#1D1D1B;enable-background:new    ;}
	.st6{fill:#282828;}
	.st7{fill:#EDEDED;}
	.st8{clip-path:url(#SVGID_4_);}
	.st9{fill:#FFBE2E;}
	.st10{fill:#FFFFFF;}
	.st11{fill:#150035;}
</style>
<g id="Layer_2_1_">
	<g id="Layer_1-2">
		<ellipse class="st0" cx="263.6" cy="263.6" rx="263.6" ry="263.6"/>
		<g>
			<defs>
				<ellipse id="SVGID_1_" cx="263.6" cy="264.9" rx="263.6" ry="263.6"/>
			</defs>
			<clipPath id="SVGID_2_">
				<use xlink:href="#SVGID_1_"  style="overflow:visible;"/>
			</clipPath>
			<g class="st1">
				<path class="st2" d="M259.4,977.3c-0.6,0-1.1-0.1-1.7-0.1h-0.8c-7.4-0.5-16.5-3-26.4-8.4l-44.2-18l-43.9-25.2l14.2,10.4
					l42.9,31.3l44.7,24.7c21.7,14.3,13.6,29.5-6.8,27.8c-7.6-0.7-16.9-3.6-27-9.8l-43.2-20.3l-43.8-28.3l-5.2-3.4l40.7,31.7l44,26
					c20.7,14.7,13.1,29.2-6.2,27.8c-7.9-0.6-17.6-3.8-28.2-10.7l-42.4-21.5l-42.9-29.7L55.3,962l40.2,37.5l29.8,16.7
					c18.2,10.8,15.2,23.2,0.8,23.7c-6.5,0.2-14.8-1.7-24.3-6.9l-40.4-19.4l-63.8-49.6c-63.6-32.7-94.3-58.8-107.7-79.7
					c-13.9,5.9-26,5.3-33.9-0.8l-25.1-12.6L16.5,768.5c9,0.7,18,1.9,26.8,3.7c18.4,3.8,36.4,9.1,53.9,15.8
					c27.7,14.7,51.1,23.9,79.2,22.8c21-0.8,33.7,4,35.7,13.8c0.9,16.6-15.4,21.7-32.2,26c-27.1,6.9-65.8-4.7-91.8-8.7l53.2,35.2
					c0.1,0,1.7,1.1,1.7,1.1c0.2,0.1,29.8,19.9,29.8,19.9l44.5,28.9l46.1,22.3C285.5,962.2,278.9,977.3,259.4,977.3z"/>
				<path class="st3" d="M54.1,795.5c0,24.6-19.8,55.9-44.3,70.1s-44.3,5.7-44.3-18.9s19.8-55.9,44.3-70.1S54.1,771,54.1,795.5z"/>
				<path class="st4" d="M224.9,862c-19.6-6.6-36-1.7-47.8,15.5l21.7,13.1l25.6,15.4l39.9,24l38.9,16.6c8.7,5,16.6,7.3,23.2,7.7
					c0.2,0,0.5,0,0.7,0c18.3,0.8,25-13.5,5.1-25.8L291.7,908l-39.2-26.7L224.9,862z"/>
				<path class="st5" d="M211.8,877.5l-13,13.1l25.6,15.4l39.9,24l38.9,16.6c8.7,5,16.6,7.3,23.2,7.7c0.2,0,0.5,0,0.7,0l-48.5-22.9
					l-43.3-27.9L211.8,877.5z"/>
				<path class="st4" d="M39.6,754.9c-6.4-4.5-13.7-7.5-21.4-8.9c-28.2-4.9-55.3,14.9-66.7,36.8c-6.4,12.2-7.8,25.1-1.8,34.6
					l47.1,34.5c4.6,21.5,28.3,50.6,101.7,90.2c3.4,1.8,6.8,3.7,10.4,5.5c3.7-0.4,7.3-0.8,10.8-1.4c9.5-1.5,18.8-4.1,27.9-7.5
					c38-14.7,61.5-44,79.1-75.5L178,829.5l-12.9-8.9l-89.5-45.1l-3.3-1.9l-7.5-4.3L39.6,754.9z"/>
				<path class="st4" d="M255.7,800.8c-24.6,1.1-45.2-7.5-69.6-21c-15.4-6.2-31.2-11-47.4-14.5c-34.8-7.2-58.3-3.3-73.9,4.1
					c-3.9,1.8-7.7,4.1-11.1,6.7c-14.2,10.5-18,22.8-18,22.8c58.9,64.7,82.6,65.4,142.3,30.7c22.9,3.7,56.9,14.4,80.7,8
					c14.8-4,29.1-8.7,28.3-24C285.3,804.5,274.2,800,255.7,800.8z"/>
				<path class="st4" d="M208.7,893.8c-19.2-7.7-32.8-1.9-45.4,14.8l13.4,9.1l32.3,22l38.5,26.2l37.9,18.7c8.9,5.7,17.1,8.5,23.7,9
					c18,1.6,25.1-12.3,6-25.6l-39.3-22.8l-37.7-28.8L208.7,893.8z"/>
				<path class="st5" d="M178,829.5c0,0-74.9,28.5-138.9-29.5c43.4,45.7,100.8,63.2,147.4,35.3L178,829.5z"/>
				<path class="st5" d="M64.8,769.3l-25.2-14.5c-6.4-4.5-13.7-7.5-21.4-8.9l35.5,30l7.1,6c0,0,3-4.1,11.5-8.3
					c11.1-5.5,31.4-11.2,66.4-8.4C103.9,758,80.4,762,64.8,769.3z"/>
				<path class="st5" d="M186.4,908l-9.7,9.7l32.3,22l38.5,26.2l37.9,18.7c8.9,5.7,17.1,8.5,23.7,9l-56-31.6l-38.9-29.5L186.4,908z"
					/>
				<path class="st4" d="M174.6,912.2c-18.9-8.2-32.6-2.9-45.7,13.4l9.4,6.8l35.4,25.7l37.7,27.4l37.3,19.9
					c9.2,6.4,17.8,9.3,24.7,9.9c17,1.3,23.7-12,5.5-25.6l-38.6-24l-36.8-30L174.6,912.2z"/>
				<path class="st5" d="M149,921.7l-10.7,10.8l35.4,25.7l37.7,27.4l37.3,19.9c9.2,6.4,17.8,9.3,24.7,9.9l-60.6-33.8l-42.3-35.9
					L149,921.7z"/>
				<path class="st4" d="M139.4,930.8c-10.9-5.5-20.3-5.3-29.9,1.1c-4.2,2.9-7.9,6.3-11.2,10.2l56.1,45.9l35.6,17.9
					c8.4,4.8,15.6,6.6,21.1,6.4c12.9-0.5,15.6-12-0.5-21.9L184.5,975l-37-36.3L139.4,930.8z"/>
				<path class="st5" d="M-48.5,782.8c-6.4,12.2-7.8,25.1-1.8,34.6l47.1,34.5c4.6,21.5,28.3,50.6,101.7,90.2l56.1,45.9l35.6,17.9
					c8.4,4.8,15.6,6.6,21.1,6.4c-26.2-12.8-44.1-18.1-51-34.2c-16.9-7.2-29.9-18.4-40.6-31.9c-3.6-4.6-6.9-9.4-10-14.3
					c-0.6-1-1.2-1.9-1.8-2.9C34.7,895.8-4.9,848.8,12,818.4C-12.7,829.1-32,808-48.5,782.8z"/>
				<path class="st5" d="M186.7,847.3c-5.2-9-16.8-12.1-25.8-6.9c0,0,0,0,0,0l-29,16.7l-26.2,15.1c-9,5.2-12.1,16.8-6.9,25.8
					c5.2,9,16.8,12.1,25.8,6.9l26.2-15.1l29-16.7C188.8,867.8,191.9,856.3,186.7,847.3z"/>
				<path class="st6" d="M-78.9,666.4c-43.5-7-88.9,35.8-102.6,79.8l154.7,96.3c6.4-42.4,45.8-95.7,86-76.4L-78.9,666.4z"/>
				<polygon class="st5" points="-294.3,676 -340.2,702.5 -314.1,687.4 				"/>
				<path class="st7" d="M-167.3,602.6L-294.3,676l-19.8,11.4l-26.1,15.1l155.6,81.9c-2.4-12-1.1-25.2,3-38.3
					c13.8-44,59.1-86.7,102.6-79.8L-167.3,602.6z"/>
				<path class="st0" d="M-184.6,784.5L-25.9,868c-2.1-7.4-2.3-16.2-0.9-25.5l-154.7-96.3C-185.7,759.2-187,772.4-184.6,784.5z"/>
				<path d="M-26.9,842.5l-154.7-96.3L-294.3,676l-19.8,11.4l-26.1,15.1l155.6,81.9L-25.9,868C-28.1,860.6-28.3,851.8-26.9,842.5z"
					/>
			</g>
		</g>
		<g>
			<defs>
				<ellipse id="SVGID_3_" cx="263.6" cy="263.6" rx="263.6" ry="263.6"/>
			</defs>
			<clipPath id="SVGID_4_">
				<use xlink:href="#SVGID_3_"  style="overflow:visible;"/>
			</clipPath>
			<g class="st8">
				<path d="M297.7,173c-1-4.5-6.4-31.6,11-51.4c3-3.4,6.3-5.2,9.9-5.2c9.2,0,15.1,10.5,19.6,35.2c1.8,9.5,2.9,18.9,3.5,24.8
					c9.1,2.2,14.1,14.2,14.8,36c1.3,39.4-39.2,73.5-40.9,74.9l-9.4,7.8L297.7,173z"/>
				<path class="st9" d="M305.9,174.1c0,0-7.1-27.4,9.5-46.4s22.6,57.1,22.6,57.1s13.1-7.1,14.3,29.7s-38.6,69.9-38.6,69.9
					L305.9,174.1z"/>
				<path class="st10" d="M310,179.7l-0.1-0.4c-0.1-0.2-6.3-25.5,8.6-42.6c1.1-1.3,1.9-1.6,2-1.6c0,0,4.9,1.8,9.6,27.6
					c2.6,14.3,3.7,28.5,3.7,28.7l0.5,7l5.6-3.7c0.2,0,0.4-0.1,0.5-0.1c2.3,0,6.9,5.5,7.6,26.3c0.9,25.7-20.1,50.1-31,60.8L310,179.7
					z"/>
				<path d="M432.1,377.5c-8.7,0-18.4-2.2-28.9-6.6l-0.3-0.1l-0.3-0.1c-5.6-2.6-54.8-27-64.8-66.1c-3.8-14.8-5.7-32,2.2-45.8
					c4.4-11.2,34-67.6,87.8-76.5c3.4-0.6,6.8-0.9,10.2-0.9c18.3,0,28.5,9.5,33.9,17.4c12,17.9,10.3,43.8,8.3,57
					c7.6,14.3,13.9,38.4,1.2,61.8c-0.6,10-3.5,30.3-15.9,44.8C457.3,372.1,445,377.7,432.1,377.5z"/>
				<path class="st9" d="M343.2,270.8c0,0,26.2-67.8,86-77s40.8,66.5,40.8,66.5s23.2,28.9,2.9,57.8c0,0,1.4,75-69.3,47.3
					C403.7,365.4,308.6,323.4,343.2,270.8z"/>
				<path class="st10" d="M427.6,369.5c-7.4,0-16-1.9-25.7-5.7c-2.7-1.2-53.6-24.6-62.8-56c-2.9-10-1.3-19.6,5.2-29.4l0.4-0.6
					l0.2-0.6c0.2-0.6,25.7-64.5,81.2-73.1c2.9-0.5,5.7-0.7,8.6-0.7c9.4,0,16.1,2.8,20.7,8.7c12.9,16.5,4.6,50.6,4.5,50.9l-0.7,3
					l1.9,2.4c0.8,1,20,25.7,2.6,50.3l-1.2,1.7v2c0,0.2,0.2,25.1-13,38.6C443.9,366.7,436.7,369.5,427.6,369.5z"/>
				<path d="M360.2,283.5c0,0,27.1-22.3,64.6-25.9c0,0-46.5,13.8-79.2,48.2L360.2,283.5z"/>
				<path d="M373.4,331.8c0,0,31.2-16.2,68.5-11.9c0,0-48.3,3.8-87.5,30.8L373.4,331.8z"/>
				<path class="st9" d="M141.9,269.2L141.9,269.2c0,0-45.2-17.6-63,15.2s21.6,61.1,21.6,61.1l0,0c5.8,4.9,14.6,5,24.3-1
					c16.8-10.3,30-34.7,29.5-54.4C154,278.7,149.2,271.4,141.9,269.2z"/>
				<path class="st11" d="M110.6,351.1c-4,0.1-7.9-1.3-11.1-3.8l-0.2-0.2c-0.4-0.3-40.7-29.8-22.2-63.7s65.1-16.3,65.5-16.1l0.3,0.1
					c0.6,0.2,1.1,0.4,1.6,0.6l0.2,0.1l0,0c7.1,3.3,11.2,11.1,11.5,21.9c0.5,20.3-13.1,45.5-30.4,56.2
					C120.5,349.5,115.3,351.1,110.6,351.1z M100,342.5l1.8,1.5c5.4,4.5,13.4,4.1,22-1.2c16.2-10,29.1-33.6,28.5-52.6
					c-0.3-10.1-4.3-17-11-19l-2.4-0.7l0.1-0.1c-9.1-2.9-43.8-11.7-58.3,15.1c-14.6,27,12.1,51.3,19.3,57.2L100,342.5z"/>
				<path class="st11" d="M226,551.3v70.2c-0.1,2.9,1.8,5.7,5.6,7.9c7.4,4.3,19.4,4.3,26.9,0c3.7-2.1,5.6-5,5.6-7.8l0,0v-70.5
					L226,551.3z"/>
				<path class="st11" d="M245,634.6c-5,0.1-10-1.1-14.4-3.5c-4.3-2.5-6.6-6-6.6-9.7v-72.1l42-0.2v72.6c0,3.7-2.3,7-6.6,9.5
					C255,633.5,250,634.7,245,634.6z M228,553.3v68.2c-0.1,2.3,1.6,4.5,4.6,6.2c6.9,4,18,4,24.9,0c2.9-1.7,4.6-3.8,4.6-6v-68.6
					L228,553.3z"/>
				<path class="st10" d="M147.2,505.9L147.2,505.9c-0.1,0,13.9,108.4,97.9,108.3s97.7-108.7,97.7-108.7h-0.1
					c3.5-16.8-5.9-34.2-28.2-47c-38.5-22.1-100.9-22-139.4,0.2C152.9,471.6,143.7,489.1,147.2,505.9z"/>
				<path class="st11" d="M245,616.2c-84.7,0-99.8-109-99.9-110.1l-0.1-0.9c-3.3-18,7.3-35.6,29.1-48.2
					c39-22.6,102.4-22.7,141.4-0.2c22,12.7,32.6,30.3,29.3,48.4l-0.1,0.6c-0.1,1.1-14.8,110.3-99.6,110.4H245z M149.4,507.7
					c2.5,15,20.9,104.5,95.6,104.5h0.1c74.7-0.1,92.7-89.2,95.3-104.7h-0.1l0.4-2.4c3.4-16.6-6.5-33-27.2-44.9
					c-37.9-21.8-99.6-21.7-137.4,0.2c-20.7,12-30.5,28.4-27,45l0.5,2.3L149.4,507.7z"/>
				<path class="st11" d="M314.6,458.6c38.5,22.2,38.5,58.3,0,80.5s-100.9,22.2-139.4,0s-38.5-58.3,0-80.5S276.2,436.4,314.6,458.6z
					"/>
				<path class="st11" d="M245,557.7c-25.6,0-51.2-5.6-70.7-16.9c-19.3-11.1-29.9-26-29.9-42c0-16,10.6-30.9,29.9-42
					c39-22.5,102.4-22.5,141.4,0l0,0c19.3,11.1,29.9,26,29.9,42c0,16-10.6,30.9-29.9,42C296.2,552.1,270.5,557.7,245,557.7z
					 M245,444c-24.9,0-49.8,5.5-68.7,16.4c-18,10.4-27.9,24-27.9,38.5s9.9,28.1,27.9,38.5c37.9,21.9,99.5,21.9,137.4,0
					c18-10.4,27.9-24,27.9-38.5c0-14.5-9.9-28.1-27.9-38.5C294.7,449.4,269.8,444,245,444z"/>
				<path class="st10" d="M405.8,442.8c0-4-0.5-8.1-1.4-12c-3.9-28.9-18-105.6-62.9-180.7l-96.6,8.1l-96.6-8.1
					c-44.8,75.1-58.9,151.8-62.8,180.7c-6.2,27.6,9,56.5,45.7,77.7c62.8,36.3,164.7,36.3,227.5,0
					C390.2,490.3,405.9,466.6,405.8,442.8L405.8,442.8z"/>
				<path class="st11" d="M245,537.6c-41.6,0-83.1-9.1-114.8-27.4c-36.4-21-53.4-50.1-46.7-79.9c4-29.3,18.2-106.1,63.1-181.3
					l0.6-1.1l97.9,8.3l97.5-8.2l0.6,1.1c44.9,75.2,59.1,151.9,63.1,181.4c0.9,4,1.4,8.1,1.4,12.3c0,25.6-17.1,49.5-48.1,67.4
					C328.1,528.5,286.5,537.6,245,537.6z M149.4,252.2c-44,74.2-58,149.7-61.9,178.9c-6.3,28.1,10,55.6,44.8,75.7
					c62.2,35.9,163.3,35.9,225.5,0c29.7-17.2,46.1-39.9,46.1-64c0-3.9-0.5-7.8-1.3-11.6c-4-29.3-17.9-104.8-62-179l-95.4,8
					L149.4,252.2z"/>
				<path class="st9" d="M314.6,221.1c38.5,22.2,38.5,58.3,0,80.5s-100.9,22.2-139.4,0s-38.5-58.3,0-80.5S276.2,198.9,314.6,221.1z"
					/>
				<path class="st11" d="M245,320.2c-25.6,0-51.2-5.6-70.7-16.9c-19.3-11.1-29.9-26-29.9-42s10.6-30.9,29.9-42
					c39-22.5,102.4-22.5,141.4,0l0,0c19.3,11.1,29.9,26,29.9,42s-10.6,30.9-29.9,42C296.2,314.6,270.5,320.2,245,320.2z M245,206.4
					c-24.9,0-49.8,5.5-68.7,16.4c-18,10.4-27.9,24.1-27.9,38.5c0,14.5,9.9,28.1,27.9,38.5c37.9,21.9,99.5,21.9,137.4,0
					c18-10.4,27.9-24,27.9-38.5c0-14.5-9.9-28.1-27.9-38.5C294.7,211.9,269.8,206.4,245,206.4z"/>
				<path class="st10" d="M342.7,239.1L342.7,239.1c0.1,0-13.7-108.5-97.7-108.5s-97.8,108.5-97.8,108.5h0.1
					c-3.5,16.8,5.8,34.2,28.1,47.1c38.5,22.2,100.9,22.2,139.4,0C336.9,273.4,346.2,255.9,342.7,239.1z"/>
				<path class="st11" d="M245,304.8c-25.6,0-51.2-5.6-70.7-16.9c-22-12.7-32.6-30.3-29.2-48.5l0.1-0.6c0.1-1.1,15-110.3,99.8-110.3
					h0.1c84.8,0,99.7,109.2,99.8,110.3l0.1,0.8c3.3,18.1-7.3,35.6-29.2,48.2C296.2,299.2,270.5,304.8,245,304.8z M149.5,237.1h0.1
					l-0.4,2.4c-3.5,16.6,6.4,33,27.1,44.9c37.9,21.9,99.5,21.9,137.4,0c20.7-11.9,30.6-28.3,27.1-44.9l-0.5-2.4h0.2
					c-2.6-15.4-20.9-104.5-95.5-104.5h-0.1C170.3,132.6,152,221.7,149.5,237.1L149.5,237.1z"/>
				<path class="st9" d="M257.8,141.7c7.1,4.1,7.1,10.7,0,14.8s-18.5,4.1-25.6,0s-7.1-10.7,0-14.8S250.7,137.6,257.8,141.7z"/>
				<path class="st11" d="M245,161.6c-4.8,0.1-9.6-1.1-13.8-3.3c-4.1-2.4-6.3-5.6-6.3-9.1s2.2-6.8,6.3-9.1c7.7-4.5,19.9-4.5,27.6,0
					l0,0c4.1,2.4,6.3,5.6,6.3,9.1s-2.2,6.8-6.3,9.1C254.6,160.5,249.8,161.6,245,161.6z M245,140.7c-4.1-0.1-8.2,0.9-11.8,2.8
					c-2.8,1.6-4.3,3.6-4.3,5.6s1.5,4,4.3,5.6c6.4,3.7,17.2,3.7,23.6,0c2.8-1.6,4.3-3.6,4.3-5.6s-1.5-4.1-4.3-5.6l0,0
					C253.1,141.5,249.1,140.6,245,140.7z"/>
				<path class="st9" d="M376,386.4L376,386.4c0,0,52.1-11.4,48.5-52.1s-56.9-42.9-56.9-42.9l0,0c-8.3-1-16.4,4.3-21.6,15.6
					c-9.1,19.6-6.5,50,6,67.7C359.2,385,368,388.8,376,386.4z"/>
				<path class="st11" d="M371.2,389.1c-7.5,0-14.9-4.6-20.9-13.2c-12.8-18.2-15.5-49.5-6.1-69.7c5.4-11.6,13.9-17.8,23.2-16.8h0.3
					c0.5,0,55.1,2.6,58.8,44.7s-49.5,54.2-50.1,54.3l-0.4,0.1c-0.6,0.2-1.3,0.3-1.9,0.4H374l0,0C373.1,389,372.2,389.1,371.2,389.1z
					 M365.7,293.3c-7.1,0-13.5,5.2-17.9,14.6c-8.9,19-6.3,48.5,5.8,65.7c6.4,9.1,14.4,13.1,21.8,10.9l2.6-0.8v0.1
					c10-2.9,47.4-15.8,44.5-49.4c-3-34.1-43.2-40-52.9-40.9v0.1l-2.2-0.2C366.9,293.3,366.3,293.3,365.7,293.3L365.7,293.3z"/>
				<path class="st9" d="M195.5,204.8c-16.9-9.8-23.4-23.6-19.5-36.5c0.1-0.3-0.1-0.6-0.4-0.7c-0.2,0-0.4,0-0.6,0.2
					c-11.1,15.4-18.1,32.7-22.2,46.5c-3.6,15.9,5.5,32.8,26.6,45c17.6,10.2,40.5,15.3,63.6,15.5c9,0.1,17.4-4.8,21.8-12.7l0.2-0.4
					c6.2-11,5.7-24.6-1.1-35.2l0,0c-3.9-6.1-10.7-9.9-17.9-9.9C227.6,216.7,209.4,212.8,195.5,204.8z"/>
				<path class="st11" d="M243.1,276.8h-0.2c-24.4-0.2-47.3-5.8-64.6-15.8c-21.2-12.2-31.5-29.9-27.5-47.1
					c3.8-12.6,10.8-31,22.5-47.2c0.7-1,2.1-1.4,3.2-0.8c1.1,0.6,1.7,1.9,1.3,3.1c-3.8,12.5,3.1,25.2,18.6,34.2l0,0
					c12.9,7.4,30,11.5,48.4,11.5c0.4,0,0.7,0,1.1,0c7.9,0.1,15.2,4.1,19.5,10.8c7.3,11.2,7.7,25.6,1.2,37.2l-0.2,0.4
					C261.7,271.5,252.8,276.8,243.1,276.8z M172.9,174.4c-9.2,14.4-15,29.7-18.2,40.5c-3.5,15.4,6.1,31.3,25.6,42.6
					c16.7,9.6,38.9,15,62.6,15.3c8.3,0.1,16-4.4,20-11.7l0.2-0.4c5.8-10.4,5.4-23.1-1.1-33.1c-3.5-5.5-9.6-8.9-16.1-9h-1.1
					c-19,0-36.9-4.3-50.4-12.1l0,0C180,198.1,172.2,186.5,172.9,174.4z"/>
				<path class="st11" d="M244.2,265.5c-23.1-0.2-36.9-2.2-55.8-12.3c-21.5-11.5-32.4-25.1-26.6-44.9c3.3-11.1,7.7-21.8,13.1-32
					c-0.1-2.7,0.3-5.4,1.1-8c0.1-0.3-0.1-0.6-0.4-0.7c-0.2,0-0.4,0-0.6,0.2c-11.1,15.4-18.1,32.7-22.2,46.5
					c-3.6,15.9,5.5,32.8,26.6,45c17.6,10.2,40.5,15.5,63.6,15.5c9.1,0,15.9-6.5,20.5-11.4c0.2-0.2,0.2-0.4,0-0.6
					c-0.1-0.1-0.3-0.1-0.4-0.1C256.9,264.6,250.5,265.6,244.2,265.5z"/>
				<path class="st11" d="M242.9,276.8c-24,0-46.9-5.6-64.6-15.8c-21.2-12.2-31.5-29.9-27.5-47.1c3.8-12.6,10.8-31,22.5-47.2
					c0.7-1,2.1-1.4,3.2-0.8c1.1,0.6,1.7,1.9,1.3,3.1c-0.7,2.4-1.1,4.9-1,7.4v0.5l-0.3,0.5c-5.4,10.1-9.7,20.6-13,31.6
					c-5.1,17.3,2.8,30.4,25.6,42.6c18.7,10,32.6,11.8,54.9,12l0,0c6.2,0.1,12.3-0.8,18.1-2.7c1.3-0.4,2.6,0.2,3.1,1.5
					c0.3,0.9,0.1,1.8-0.5,2.5C258.9,271,252.1,276.8,242.9,276.8z M172.9,174.3c-9.3,14.4-15,29.7-18.3,40.6
					c-3.5,15.4,6.1,31.3,25.6,42.6c17,9.8,39.3,15.3,62.6,15.3c5.7,0,10.4-2.8,14.7-6.5c-4.4,0.9-8.9,1.3-13.5,1.3
					c-23-0.2-37.3-2.1-56.8-12.5c-24.5-13.1-33.2-28.1-27.6-47.3c3.3-11,7.7-21.7,13.1-31.9C172.9,175.3,172.9,174.8,172.9,174.3
					L172.9,174.3z"/>
				<path class="st10" d="M181.7,216.6c-0.6,7-3.7,12.4-7.1,12.2s-5.6-6.1-5.1-13.1s3.7-12.4,7.1-12.1S182.2,209.6,181.7,216.6z"/>
				<path class="st11" d="M174.8,230.8h-0.4c-4.6-0.4-7.6-6.9-6.9-15.3s4.7-14.3,9.2-14s7.6,6.9,6.9,15.3c-0.2,3.4-1.1,6.7-2.8,9.6
					C179.3,229.2,177.1,230.8,174.8,230.8z M176.4,205.5c-1.6,0-4.4,4-4.9,10.3s1.6,10.8,3.2,11c0.7,0,1.8-0.9,2.7-2.4
					c1.3-2.5,2.1-5.2,2.2-7.9C180.2,210.1,178.1,205.6,176.4,205.5L176.4,205.5z"/>
				<path class="st10" d="M243.7,240.7c-0.1,7.9-6.6,14.2-14.6,14.1c-7.9-0.1-14.2-6.6-14.1-14.6c0.1-7.9,6.6-14.2,14.4-14.1
					C237.4,226.3,243.7,232.8,243.7,240.7z"/>
				<path class="st11" d="M229.3,257.1h-0.1c-9.1-0.1-16.4-7.6-16.2-16.7c0.1-4.3,1.8-8.4,4.9-11.5c3.1-3.1,7.2-4.8,11.6-4.8
					c9.1,0.2,16.4,7.7,16.2,16.8c-0.1,4.3-1.8,8.4-4.9,11.4C237.8,255.4,233.6,257.1,229.3,257.1z M229.3,228.2
					c-3.2,0-6.4,1.3-8.7,3.6c-4.9,4.9-4.9,12.8-0.1,17.6c2.3,2.3,5.4,3.6,8.6,3.7c3.3,0.1,6.5-1.2,8.8-3.6c2.3-2.3,3.7-5.5,3.7-8.8
					l0,0C241.7,233.9,236.2,228.2,229.3,228.2L229.3,228.2z"/>
				<path class="st9" d="M268.3,415.8l-9.8-30.3c-1.2-3.7-4.7-6.1-8.5-6c-51.3,0.8-87.7-18.1-101.5-26.7c-3.7-2.3-8.4-1.6-11.3,1.7
					l-12,13.9c-7.7,8.9-13.3,19.4-16.3,30.8c-16.7,64-2,90.9-1.7,91.3c7.2,6.8,15.3,12.6,23.9,17.5c37,21.3,87.5,30.1,135.6,26.3
					c11.6-32.2,9.7-71.1,7.4-92.2C273,433.1,271.1,424.3,268.3,415.8z"/>
				<path class="st11" d="M244.3,537.2c-42.8,0-83.5-9.7-114.4-27.5c-8.7-5-16.9-10.9-24.2-17.8l-0.4-0.5
					c-0.6-1.1-15.2-28.5,1.5-92.8c3.1-11.7,8.8-22.5,16.8-31.6l12-13.9c3.5-4,9.3-4.9,13.8-2.1c13.2,8.2,49.2,27.1,100.4,26.4
					c4.7-0.1,8.9,2.9,10.4,7.4l9.8,30.3c2.8,8.7,4.8,17.7,5.8,26.8c2.3,20.7,4.3,60.4-7.5,93.1l-0.4,1.2l-1.3,0.1
					C259.2,537,251.7,537.2,244.3,537.2z M108.8,489.3c7,6.5,14.8,12.3,23.2,17c35.2,20.3,83.7,29.8,133.2,26.2
					c11-31.7,9-70,6.9-90.1c-1-8.8-2.9-17.5-5.6-26l-9.8-30.3c-0.9-2.8-3.5-4.6-6.4-4.6H250c-52.3,0.8-89.1-18.6-102.6-27
					c-2.8-1.8-6.5-1.2-8.7,1.3l-12,13.9c-7.5,8.7-13,18.9-15.9,30C95.3,459.2,107.4,486.5,108.8,489.3z"/>
				<ellipse class="st10" cx="117.9" cy="478.6" rx="4.5" ry="6.4"/>
				<path class="st11" d="M118,487c-3.6,0-6.5-3.7-6.5-8.4s2.8-8.4,6.5-8.4s6.5,3.7,6.5,8.4S121.6,487,118,487z M118,474.2
					c-1.2,0-2.5,1.9-2.5,4.4s1.2,4.4,2.5,4.4s2.5-1.9,2.5-4.4S119.1,474.2,118,474.2L118,474.2z"/>
				<path class="st10" d="M146.6,373.5c-1.7,3.1-4.7,4.7-6.9,3.6s-2.5-4.6-0.9-7.7s4.7-4.7,6.9-3.6S148.2,370.4,146.6,373.5z"/>
				<path class="st11" d="M141.2,379.5c-0.8,0-1.7-0.2-2.4-0.6c-1.7-1-2.8-2.7-2.9-4.7c-0.3-4.1,1.8-8,5.3-10c1.7-1,3.7-1,5.5-0.2
					c3.2,1.7,3.9,6.3,1.7,10.4l0,0c-0.9,1.8-2.3,3.3-4.1,4.2C143.3,379.2,142.2,379.4,141.2,379.5z M144.2,367.5
					c-0.4,0-0.8,0.1-1.2,0.3c-1,0.6-1.9,1.5-2.4,2.6c-0.6,1-0.9,2.2-0.8,3.4c-0.1,0.8,0.5,1.6,1.3,1.7c0.4,0.1,0.9-0.1,1.2-0.4
					c1-0.6,1.9-1.5,2.4-2.6c1.2-2.2,0.9-4.5-0.1-5C144.6,367.5,144.4,367.4,144.2,367.5L144.2,367.5z"/>
				<path class="st10" d="M257,516.5c0,3.5-2.9,6.4-6.4,6.4s-6.4-2.9-6.4-6.4s2.9-6.4,6.4-6.4h0C254.1,510.1,257,513,257,516.5z"/>
				<path class="st11" d="M250.6,524.9c-4.6,0-8.4-3.8-8.4-8.4c0-4.6,3.8-8.4,8.4-8.4c4.6,0,8.4,3.8,8.4,8.4
					C259,521.1,255.2,524.9,250.6,524.9z M250.6,512.1c-2.4,0-4.4,2-4.4,4.4c0,2.4,2,4.4,4.4,4.4c2.4,0,4.4-2,4.4-4.4
					C255,514.1,253,512.1,250.6,512.1C250.6,512.1,250.6,512.1,250.6,512.1L250.6,512.1z"/>
				<path class="st10" d="M249.1,400.6c0,3.5-2.9,6.4-6.4,6.4c-3.5,0-6.4-2.9-6.4-6.4c0-3.5,2.9-6.4,6.4-6.4h0
					C246.2,394.2,249.1,397.1,249.1,400.6z"/>
				<path class="st11" d="M242.7,409c-4.6,0-8.4-3.8-8.4-8.4s3.8-8.4,8.4-8.4s8.4,3.8,8.4,8.4c0,0,0,0,0,0
					C251.1,405.2,247.3,409,242.7,409z M242.7,396.2c-2.4,0-4.4,2-4.4,4.4s2,4.4,4.4,4.4c2.4,0,4.4-2,4.4-4.4c0,0,0,0,0,0
					C247,398.2,245.1,396.2,242.7,396.2L242.7,396.2z"/>
				<path class="st11" d="M380,386.9c-26.6-13.1-26.5-51.3-26.5-52.9h4c0,0.4,0,37.3,24.2,49.3L380,386.9z"/>
				<path class="st11" d="M357.6,325.4l-4-0.3c0-0.6,1.1-14.1,8.1-23.5l3.2,2.4C358.6,312.5,357.6,325.3,357.6,325.4z"/>
				<path class="st11" d="M65.6,293.6c-0.1-0.8-3.2-19,16.6-32.1l2.1,3.2c-17.8,11.7-15,28.1-15,28.3L65.6,293.6z"/>
				<path class="st11" d="M246,171.2c-25,0-31-16.2-31.2-17l3.8-1.3c0.2,0.7,6.3,16.5,33,14l0.4,4
					C249.8,171.1,247.8,171.2,246,171.2z"/>
				<path class="st11" d="M284.7,521l-0.5-4c0.4,0,40.3-5.2,71.5-24.1l2.1,3.4C325.8,515.7,285.1,521,284.7,521z"/>
				<path class="st11" d="M388.8,465.4l-2.4-3.2c0.1,0,6.5-5.1,9.3-16.8l3.9,0.9C396.5,459.6,389.1,465.2,388.8,465.4z"/>
				<path class="st11" d="M178.8,148.4l-2.8-2.8c1-1,24-23.8,62-27.8l0.4,4C201.8,125.6,179,148.2,178.8,148.4z"/>
				<path class="st11" d="M79.1,422.3l-3.7-0.6c0.1-0.4,6.4-41,14.3-64.2l3.6,1.2C85.5,381.7,79.2,421.9,79.1,422.3z"/>
				<path class="st11" d="M275,125.1c-7.8-2.9-25.8-3.3-26-3.3l0.1-4c0.8,0,18.8,0.5,27.3,3.5L275,125.1z"/>
				<path d="M154.8,412.6l20.6,3.8l-5.2,27.9l26.5,4.9l5.2-27.9l20.6,3.9l-13.9,74.5l-20.6-3.9l5.3-28.3l-26.5-4.9l-5.3,28.3
					l-20.6-3.9L154.8,412.6z"/>
			</g>
		</g>
		<path d="M570.7,190.2h33.6v60.4h62v-60.4h33.6v152.7h-33.6v-61.3h-62v61.3h-33.5V190.2z"/>
		<path d="M736.5,190.2h115.2v29.9h-81.8v31h72V281h-72v32h82.9v29.9H736.5V190.2z"/>
		<path d="M882.6,190.2h69.8c19.4,0,34.5,5.4,44.5,15.5c8.5,8.5,13.1,20.5,13.1,34.9v0.4c0,24.7-13.3,40.1-32.7,47.3l37.3,54.5
			h-39.3l-32.7-48.9h-26.4v48.9h-33.6V190.2z M950.2,264.4c16.4,0,25.7-8.7,25.7-21.6v-0.4c0-14.4-10-21.8-26.4-21.8h-33.4v43.8
			H950.2z"/>
		<path d="M1040.3,190.2h36.2l40.1,64.6l40.1-64.6h36.2v152.7h-33.4v-99.7l-43,65.2h-0.9l-42.5-64.6v99h-32.9L1040.3,190.2z"/>
		<path d="M1229.7,190.2h115.2v29.9H1263v31h72V281h-72v32h82.9v29.9h-116.2V190.2z"/>
		<path d="M1365.3,320.7l19.8-23.8c13.7,11.4,28.1,18.5,45.6,18.5c13.7,0,22-5.5,22-14.4v-0.4c0-8.5-5.2-12.9-30.8-19.4
			c-30.8-7.9-50.6-16.4-50.6-46.7v-0.4c0-27.7,22.2-46,53.4-46c22.2,0,41.2,7,56.7,19.4l-17.4,25.3c-13.5-9.4-26.8-15-39.7-15
			s-19.6,5.9-19.6,13.3v0.4c0,10,6.5,13.3,32.9,20.1c31,8.1,48.4,19.2,48.4,45.8v0.4c0,30.3-23.1,47.3-56.1,47.3
			C1406.2,345.2,1383.2,336.5,1365.3,320.7z"/>
	</g>
</g>
</svg>
